<svg id="a0041bcd-c5cc-4f4a-b830-3a221c18054a" data-name="Layer 1" xmlns="http://www.w3.org/2000/svg" viewBox="1000.1000 750.50 758.89"><defs><style>.bbf07b99-6c2c-489f-8142-7b559fcb56c2{fill:none;stroke:#fff;stroke-miterlimit:10;stroke-width:3px;}</style></defs><title>haiku</title><path class="bbf07b99-6c2c-489f-8142-7b559fcb56c2" d="M-14.56,708.16c-4.3,2.4-9.17,3.57-13.71,5.19-7.85,2.8-11.49-1.23-17.22-3.63C-52,707-59.87,706-67.11,706.16c-6.26.13-7.59-3.91-10.93-6.56s-7.15-5.67-11.21-6.39c-6.66-1.17-9.49,2.47-8.15,8.73a20.11,20.11,0,0,0,3.17,8v-8.87l1-.21c1.37,2.59,2.14,5.88,4.37,7.48,1.12.81,4.87-1.42,7.85-2.42.46,1.24,1.38,3.72,2.67,7.17l3.63-6.74c.87,3.48,1.54,6.14,2.31,9.2h-94.9l-.24-1.27,4.84-2.14-24.15-5.59c4.49-2.44,7.95-4.08,11.11-6.12,1.86-1.19,3.24-3,4.83-4.53,1.08-1,2.11-2.91,3.23-3,5.22-.24,7.93-2.69,9-7.11a85.08,85.08,0,0,0-29,3.89c-6.4,2-14.06.58-21.12,1.06-10,.67-19.68-2.24-30.17,1.55-12.53,4.53-26.5,5.67-39.79,8.54-9.71,2.1-19.28,4.71-29,6.89-4.86,1.09-9.92,1.45-14.71,2.71-2.52.67-4.64,2.56-6.95,3.89V642.45c11.57-2.38,23.18-4.61,34.68-7.21,5.89-1.34,11.55-3.47,17.39-5a59.31,59.31,0,0,1,7.82-1.05c8.92-1.09,17.89-1.9,26.74-3.36,5.23-.86,10.18-3.05,15.39-4.08a212.79,212.79,0,0,1,24.16-3.89c15-1.22,30-1.68,45-2.62,2.13-.13,4.16-1.33,6.3-1.79,2.83-.61,5.73-1,9.46-1.59a87.26,87.26,0,0,0-14-33.33c-5.33-7.66-9.17-15.66-3.81-24.88.71-1.21-.45-3.23-.28-4.83.1-1,1.09-1.93,1.68-2.89l3.35,2.51,9-19.88c-7.77-2.26-8.27-7.09-7.79-12.22a11.17,11.17,0,0,0-8.52-11.73c-12.29-3.1-24.61-6.06-37.8-9.29,7.52-5.12,14.5-1.36,21.27-1.29,1.75,0,3.78.78,5.2.21,9.51-3.82,16.83-1.37,22.7,6a6.7,6.7,0,0,0,1.62,1.07c5.68-7.73,11.42-15.31,16.79-23.11.78-1.13.29-3.53-.48-4.95a23.51,23.51,0,0,0-18.92-12.57c-12.26-1.25-19.14-8.06-23.88-17.92,7.17,6.95,14.57,13.41,26.93,11.89-7.81-9.46-16-18.91-11-31.81-1.25,15.87,12.31,25.18,20,37,3,4.68,7.73,8.45,12.8,13.84,11.52-12.32,23-24.08,33.67-36.4,2.47-2.85,3.4-7.74,3-11.52-1.34-13.59,4.26-23.15,17.7-29,5.9-2.57,12-4.88,17.5-8a31.05,31.05,0,0,0,8.78-8C-35.2,365.4-23.74,349.87-12,334.51c1.07-1.4,3.16-3,4.79-3,6.87-.06,11.05-4,15.55-7.82a48.23,48.23,0,0,1,29.87-11.44c14.75-.67,29.45-4.57,45.16-.68-2.82-2.53-5.15-6.19-8.53-7.41-16-5.73-26.08-17.17-35.93-29-3.41-4.1-6.46-8.45-9.89-12.54a78.28,78.28,0,0,0-40.14-26c-14-3.87-27.66-8.89-41.36-13.67-3.92-1.37-5.79-.56-8.29,2.49-12,14.68-23.19,30.19-40,40.76-8.1,5.09-17.34,8.71-26.2,12.72-5,2.27-10.3,4-15.82,6.1-6.27-11.3-1.44-23.27-1.13-34.95.23-8.53,1.46-16.84-3.84-24.6-3.22-4.72,1.61-5.55,4.69-6.73,17.29-6.66,35.56-7.65,53.9-6.66,10.51.57,20.92,2.69,32.55,4.28,6.84-10.15,14.64-21.17,21.83-32.52,15-23.61,31.15-46.45,53.69-64.65,9-7.31,20-12.62,30.13-18.83,1.84-1.13,3.73-2.19,5.13-3l-6-8.37L45.81,99.1l-1.24.12c-1.1-4.2-2.2-8.4-3.55-13.52l-2.64,4.54L28,91l-1.44-5.3-4.16,6.26-4.57-7-5.47,1.48v-4L-6.09,86.67c5.8,7.84,8.06-1.64,12,0C2.21,92.85-4.91,94.09-9.48,88.53c-3.46-4.23-6.57-3-10.36-1.85-2.05.62-4.05,1.4-6.55,2.27l2.2,4-4.2,1.43L-30,88.21l-1.72,4.89-3.61-2.85-3.88,5.83c-.72-1.61-1.11-2.48-1.7-3.78l-4.9,2.52,1.65,5.44a19.1,19.1,0,0,1-2.63-.47c-4-1.61-6.41-.7-10.21,2.09a35,35,0,0,0-11.17,13.59c-1.53,3.06-6.11,4.79-9.16,7.28-.66.55-1,2.52-.8,2.65,4,2.21,1.74,7.75,5.83,9.11l-6,5.92.21-.19c-8.87-5.13-9.64-5.06-18,2.08l3.37,2.14c-2.69,7-5.19,13.58-7.74,20.23,4,1.6,6.72,2.64,6.51-2-.08-1.81-.25-3.62-.38-5.43,2.58.19,5.18.25,7.73.65,1,.15,1.83,1.07,1.51.87-1.11,3.31-1.43,6.32-3,8.56-2.09,2.91-4.73,6.17-8,7.51-3.61,1.49-8.44,3.75-12.11-1.2-1.18-1.6-3.83-2.29-7.45-4.31,2.23-3.05,4.67-6.48,7.22-9.84s5.33-6.8,7.94-10.12h-6.32c.29-1.71.52-3.43.87-5.13.41-2,.93-3.95,1.42-6,6.12-2,16.48-19.36,14.89-24.17l8.18-4.74,7.55-8.16-.14-.11,10.69-13.57,2.32,1.15,7-8.41,6.19,3.21c2.84-9,12-8.41,19-11.15,2-.79,4.17-1.37,6.25-2l-2.62-1.85c2,.1,4.94,1,5.71.18C-13.81,62.39-5.12,63.16,2,60.27c1.59-.66,2.55-2.6,4.22-2.46,5.53-1.22,11.08-2.4,16.6-3.68,7.81-1.81,15.17-5,23.81-1.55,4.09,1.62,9.62.43,14.47.18,8.64-.46,14-7.36,22-9.5,7.9-2.09,15-6.15,23.85-5.94,5.23.12,10.54-2.58,15.82-4C122.71,48.65,118,54,101.48,56.66v8.85l-13.78-4c-6,6.3-5,13.85-3.92,20.49.44,2.8,6.85,4.82,10.55,7.19l1.54-1.4v5.33l11.37,1.36L95.63,103c2.39,1.23,5.54,2,6.94,3.83s1.33,5,2.19,8.94a37,37,0,0,0-4.36-3,17.4,17.4,0,0,0-3.33-.9c.55,2.49,1.05,4.82,1.52,7L85,117.76c-.42,1.06-1,2.6-2.35,6-1.32-4.23-2.08-6.64-3-9.49l-6,5.16c-1.1-1.26-2-2.29-2.87-3.32l-1.42.19c.3,3.84.61,7.69.94,11.85L62,127l3.5-4.41H48.14c-.13.72-.25,1.43-.37,2.15l11.94,2.89,0,.87c-3.83.64-7.71,1.94-11.48,1.72-3.51-.2-8.23-.81-6.14-6.5.3-.82-2.72-2.65-4.19-4,1.64-.4,3.3-1.2,4.87-1.07,2.44.21,5.55,2.22,7.07,1.41,3.79-2,6.85-5.19,11.16-8.68-5.11.79-9,1.18-12.73,2s-7.65,2.16-11.47,3.27L38,119.52c-.71,4.2-1.41,8.41-2.23,13.31-11.93-7-15.95-6.5-23.31.95-3.1,3.13-2.33,5.89.1,8.38,2.64,2.72,5.91,4.92,9.15,7.54l-4.67,1.13.77-1.33-7.9-5.31-1.16,1.29v-2.82l-1.56-.49a54.21,54.21,0,0,1-3.31,7.07c-1.24,1.9-3.15,3.44-5.08,5.47l-6.31-3.46-47.31,66c16,5.64,30.81,11.52,46.11,16.09,18,5.37,31.45,15.49,42.51,29.08,7.65,9.41,16.25,18.19,23.79,27.67,6.23,7.84,16.88,8.79,24.37,14.43,2.5,1.88,5.15,4.17,6.26,6.79.56,1.32-1.67,4.85-3.5,5.58-7.77,3.1-15.66,6.42-23.88,8-11,2.09-22.5,2.11-33.56,4.05-5.19.91-10.07,3.95-14.74,6.55a171.1,171.1,0,0,0-15.34,9.86c-5.8,4.1-12.67,7.66-16.69,13-7.65,10.07-13.76,21.14-20.21,31.93-5,8.4-13.13,13.39-21.93,17.72-5.94,2.93-12.07,5.52-17.9,8.6-1.46.76-3.12,2.93-3,4.26,2.3,17.09-8.27,29-19.5,40.49-6.6,6.74-14.25,12.62-22,19.39l8.53,11.75c7.94-2.07,14.94-4.32,22.15-5.57,3.35-.58,7.09.86,10.66,1.29,1.22.15,2.73.45,3.67,0,11.83-6.06,23.67-11.86,28.58-25,1.26-3.37,6.32-6.66,10.35-7.72,3.82-1,5.55-2.48,7.2-5.35,2.23-3.9,5-7.55,7.51-11.31l2.7.83c-.78,4.06-1.55,8.11-2.4,12.53,2.72-1.44,5.27-2.8,7.82-4.17l.66.93c-4.72,3.24-9.76,6.16-14.08,9.79-8.94,7.51-16.94,16-26.36,22.93-8.33,6.13-18,10.8-27.22,15.84-2.23,1.21-5.39,2.19-7.76,1.74-8.11-1.54-12.75,2.5-15.87,6.29.8,5.85,2.54,10.64,1.82,15.08-1.51,9.31-1.28,18,5.18,25.74,6.61,7.89,7.26,15.22,3.13,25.07-3.77,9-2.55,19.75-3.4,29.73-.2,2.43.35,4.92.15,7.35-.67,8.2.79,9.73,9.49,10.08,2.26.09,4.49.89,7.54,1.53,3.56-2.73,14.46-.33,18,4.93,1.42-.53,3-1.71,4.21-1.48,6.36,1.16,12,3.28,19.25.77,4.28-1.49,13.21.6,15.67,3.86,6.07,8,12.73,3,18.89,2.49,4-.31,6.61-1.45,6.08,3.73-.09.81,2,1.81,4,3.56l-.28-4c4.7.63,9.92.4,14.13,2.17,3.81,1.59,6.51,5.38,10.5,7.56l-3.11-5.45.94-1.85,16.08,2.83v2.8a78.11,78.11,0,0,0,7.78,1.62,51.11,51.11,0,0,0,6.49.06l8,4.54,1.16-1.42L61.53,644c7-2.23,11.32,11.22,17.38,2.82,14.74,8.16,30.33,12.53,45.36,17.95l-2.89,6.34,6.66-5.23c5.15,6.82,18.85.36,22.06,12.49.37-1.39.75-2.77,1.12-4.16l2.22,1.26c-.49,2.42-1,4.85-1.44,7.17-9.17,2.14-6.35-7.52-12.27-8.6-1.17,7.69-6.69,7.71-13.78,5.16-.33,1.55-.67,3.19-1,5l3.62-.61c-1,2.6-1.88,5.06-2.83,7.62,4.41.68,6.45,1.48,4.8,6.31-2.12,6.18-4.5,11.81-10.23,16,.37-1.56.75-3.13,1.65-6.86-6.26,3-10.82,5.2-15.46,7.29a8.18,8.18,0,0,1-4.13.91c-.57-.07-1.51-2.23-1.14-2.91a5.78,5.78,0,0,1,3.31-2.32,37.46,37.46,0,0,1,6.18-.67c-5.9-2.17-11.14-4.18-16.47-6a3.07,3.07,0,0,0-2.61,1.23,2.54,2.54,0,0,0,1.07,2.41,39.28,39.28,0,0,0,5.55,2c.06.61.13,1.21.19,1.82-3.6,0-7.21-.09-10.8,0-2.7.09-7.17-.32-7.76.82-1.91,3.72-4.66,3.39-6.76,1.54-1.07-.94.11-4,.26-6.09,0-.41,0-.82,0-1.23-10.94-7.82-24-10.89-37.21-13-10.4-1.67-21-2.12-31.5-3.47a64.13,64.13,0,0,1-15-3.38c-5.72-2.25-9.74.25-14.11,2.54-1.54.8-3,2.09-4.63,2.32-4.13.6-6.1,1.87-4.78,6.16,1.38,4.5,4.53,3,7.5,2.39a20.82,20.82,0,0,0,3.37-1.36l2.91,6.05-7.91,3.68,13.7.83Zm88.41-26.33c-1.86-.29-4.74,0-5.42-1-3.48-5-5.17-.47-7.47.85-.7-2.62-1.39-5.25-1.77-6.67a103.07,103.07,0,0,1-12.1,1.52c-.6,0-1.29-3.25-1.76-4.52a50.86,50.86,0,0,0-7.1-.32,60.84,60.84,0,0,0-7.35,1.46l-.1,2,8.31,2.15c-1.53,1-2.64,2.42-3.83,2.48-7,.34-9.17-1.83-11.13-10.7l-6.46-.55-1.35,2.15,6.08,2.44-2.16,2.18-8.8-6.93c4,5.55,3.13,9.47-3.34,12.23l15.1,4.6c2.05-1,5-3.63,6.91-3.13,6.84,1.77,12.58,7.81,20.81,3.61,1.52-.78,3.79-.28,5.42-1s3.14-2.11,4.72-3.26l3.15,7,6.09.64c1.46-3,2.58-5.32,3.7-7.64-.32,4.46-1.4,9.43,7.06,7.56l-1.92,4.5c.8.27,1.2.43,1.62.54,6,1.61,14.31-2.72,17.71,5.84.18.47,3,.06,5.33.06l-3-3.45c5.69-3.65,5.69-3.65.87-10.54-.72,1.71-1.43,3.42-2.61,6.25-1.53-2.58-2.48-3.93-3.13-5.39a13.47,13.47,0,0,1-.65-3.14l-3,1.61c-2.71-1.26-5.14-3-7.84-3.48C81.05,681.33,77.41,681.79,73.85,681.83Zm-135-460.76c-18.06-6.33-49.2-7.41-66.88-2.62-5.39,1.46-7.12,3.43-6.36,9.17,1.26,9.48.72,19.2.45,28.8-.15,5.41-1.26,10.8-1.9,15.9C-101.15,266.67-78.6,247.18-61.13,221.07Zm-56.15,296.4c-14.79,6.07-16.07,17.76-16.85,29.19a30,30,0,0,0,3.35,14.77c2.05,4.1,6.27,7.29,10,11.42,1.86-.6,7.19-1.05,7.7-2.72,1.71-5.66,4.11-12.68,1.89-17.49C-116.43,541.23-121.18,530.26-117.28,517.47ZM-59.37,702l11.63,5.21,0-1.85,12.53-4.87-10.89-4.3c.19-.55.37-1.1.55-1.65l6.47,1.21c.5-1.63,1.08-3.52,1.86-6-2.83-.41-5.45-.28-7.48-1.22s-3.39-3.72-5.51-4.35c-3.46-1-6.69-4-11-1.48-2.4,1.38-5.5,1.79-8.31,2.52-7.88,2.06-7.89,2-9.17,9.9l9.11-2.44-5.94,5.86.48,1.69C-69.36,698.36-66.09,708-59.37,702ZM-142,508.25l1.43.54,16.85-11.59q-1.84-5.38-3.7-10.77l-1.83-.44ZM2.18,677.17l-3.64-1.57,6.28-6.74L-7.42,667l-1.15-5.94-1.5-.32c-1.2,2.84-2.4,5.67-3.81,9C-7.63,671.54-6.07,679.55,2.18,677.17Zm-6.59-29.71-14,3.72,4.65,8.09,6.52-9.57,2.63,3.94,1-.43Zm-47-1.19c-2.3,1-4.62,1.92-6.87,3-1.49.69-2.89,1.53-4.33,2.31,1.71.6,3.41,1.65,5.14,1.7a78.53,78.53,0,0,0,8.89-.66C-49.4,650.89-50.4,648.64-51.46,646.27Zm-88.36,36.93c-6.7-6.87-10.4-1.36-14.76-.1l.3,2.07Zm41.65-54c4.14-7.4,6.11.71,10.83-.94l-10.83-9.74ZM-24.79,661l-1.06,1.52,9.69,4.51c.34-.54.68-1.08,1-1.61l-3.81-5.34Zm-32.5,1.85.37,1.9,7.46-1.24q-1-4.28-2-8.57l-1.71.58c.27,2,.54,3.94.82,6.08Z" transform="translate(342.94 39.3)"/><path class="bbf07b99-6c2c-489f-8142-7b559fcb56c2" d="M261.42-3c4.77,2.27,8.72,4.44,12.93,6.07s7.63-.71,6.1-4.67C279.14-5,275.82-7.75,273.23-11c4.2-3.66,4-6-.88-10.49-7.49,1.12-14,2.69-20.64,2.9-6.22.19-9,2.49-9.78,7.85-.16,1.15-1.39,2.29-2.38,3.21-3.66,3.41-3,10.9.76,10.39,6.21-.84,12.08-3.78,18.05-5.82-1.27-3.08-1.95-4.71-2-4.86,2-1.53,2.85-2.72,3.54-2.63a20.55,20.55,0,0,1,4.48,1.56l-2.8,3.95L270.16-6l.24,1.47Zm44-20.64.9,1.94c3.41-.84,7.42-1,10-2.75,2.21-1.51,4.43-5.38,3.81-7.52-1.75-6-10.73-7.77-16.09-3.35-3.05,2.52-4.81,2.66-7.64-.08-4.54-4.37-10.08-.42-11.21,1.92-1.62,3.35-.59,8.43,1,12.2s5.55,4,9.59,1.67C298.74-21.32,302.17-22.34,305.39-23.66Zm35.94-12L339-36.87c-1.3,2-3.25,3.83-3.76,6-.79,3.32-1.35,7-.63,10.22s9.7,3.11,16.58-.13L345.6-33.63l-6.94,3.46C339.81-32.53,340.57-34.11,341.33-35.69Z" transform="translate(342.94 39.3)"/><path class="bbf07b99-6c2c-489f-8142-7b559fcb56c2" d="M-329.44,441.57c9.78-1.62,19.48-6,29.45-.94,2.47,1.24,5.4,2.56,6.8,4.59,7.17,10.43,17.73,17.33,28.42,24.29A305.81,305.81,0,0,1-235.61,491c-1.2-.25-2.4-.55-3.61-.72-1.61-.21-4.15-1-4.7-.36-4.76,5.43-9.37,1.93-12.34-.94-10.68-10.3-24.66-14.47-38.67-18.75-4.8-1.47-9.74-2.55-14.47-4.23,17.21,1.07,32.51,7.25,47.25,14.92l1-1.25c-1.76-1.4-3.58-2.75-5.28-4.21-11.72-10-23.87-19.64-34.88-30.25-4.69-4.51-9.39-3.36-14.1-2.79s-9.39,2.71-14.08,4.16Z" transform="translate(342.94 39.3)"/><path class="bbf07b99-6c2c-489f-8142-7b559fcb56c2" d="M257,718.09c-5.43-4.46-11.89-4.26-20.54-2-3.26.86-8-2.24-11.77-4-1.37-.63-2-2.55-3-3.88-.6-2.16,7.45-2.14-1.09-6.3l3.73-.8,17.48,9.26c4.79-3.15,11.71-.57,16.57,7.66Z" transform="translate(342.94 39.3)"/><path class="bbf07b99-6c2c-489f-8142-7b559fcb56c2" d="M-329.44,716.85q44.2.24,88.41.5a59.84,59.84,0,0,1,6.62.74q-44.84,0-89.65-.05C-325.85,718-327.64,717.26-329.44,716.85Z" transform="translate(342.94 39.3)"/><path class="bbf07b99-6c2c-489f-8142-7b559fcb56c2" d="M-329.44,353.53l4.05-5.25c1.38,3.48,2.26,5.71,3.15,7.92.25.62.67,1.18.86,1.81.44,1.52.8,3.06,1.19,4.6a31,31,0,0,1-6,.43c-1.14-.12-2.14-1.34-3.21-2.07Z" transform="translate(342.94 39.3)"/><path class="bbf07b99-6c2c-489f-8142-7b559fcb56c2" d="M-1.51,409.55l-4.75-2.07c7-12.36,14.1-24.67,21-37.06,5.11-9.16,10-18.42,15-27.63a25.46,25.46,0,0,1,2.46-3.69c6.44-8.06,8.61-7.77,13.87.58,4.19,6.66,8,14.45,18.56,14.08,3.41-.11,6.78-1.34,9.5-1.91-2.89,6.13-13.87,6.5-21.31-.79-4.62-4.53-9.53-7.93-16.09-8.67Z" transform="translate(342.94 39.3)"/><path class="bbf07b99-6c2c-489f-8142-7b559fcb56c2" d="M103.31,374.45c-2.47.91-5.28,1.42-7.31,2.86-1.59,1.11-2.2,3.37-2.69,4.18l-8.19-3.33c-2.25-2.6-4.06-6.8,1.29-10a2.47,2.47,0,0,0,1-1.91c-.08-5.15-.29-10.3-.49-16.61l7.72,5.18-3.84,2.7.66,1.06,7.3-3.11,3.37,5.4,11.77-3.94c2.73,8.93-6.71,8.29-8.86,13.34l4,3.8-5.84.27Z" transform="translate(342.94 39.3)"/><path class="bbf07b99-6c2c-489f-8142-7b559fcb56c2" d="M-190.24,163.24c-3.78,1-7.18,5.88-11.61.92a2.89,2.89,0,0,0-2.52.2c-5.89,5-13.66,3.81-20.55,5.53-3,.74-5.33,3.5-8,5.34-3.07-3.11-2.13-6.19,2.69-7.61,4.46-1.3,7-3.15,4.67-7.94,7.72-1.26,14.78-2.56,19.2-9.13,2.07-3.07,10.92.77,13.36,5.59.56,1.11,1.25,2.16,2,3.5l-5.71-.61-.62,1.2,7.14,3.14Z" transform="translate(342.94 39.3)"/><path class="bbf07b99-6c2c-489f-8142-7b559fcb56c2" d="M121.28,354.52c17.31,25.2,25.83,47.84,23,62.5-1.22-24.47-12.85-44.8-28.29-64.67,3.75-5,9-1.26,15.4-.44,12.45,1.59,19.34,8.53,26.28,16.28a22,22,0,0,1,4.33,8.24C150.18,366.46,140.67,353.55,121.28,354.52Z" transform="translate(342.94 39.3)"/><path class="bbf07b99-6c2c-489f-8142-7b559fcb56c2" d="M-171.73,155c-4.25-.27-9.23-.12-14-1.05-3.22-.64-6.1-2.78-9.4-4.38l2.05-3.89c6.76-2.16,13.29-4.18,19.71-6.43.48-.17.25-2,.39-3.51,7-1.52,7.5,3.94,8.84,6.81-1.5,3.33-2.56,5.7-3.86,8.6l-5.92-6.07-1.7.63C-174.4,148.51-173.23,151.35-171.73,155Z" transform="translate(342.94 39.3)"/><path class="bbf07b99-6c2c-489f-8142-7b559fcb56c2" d="M157.83,125.51c1.4,5.37,3.27,10.68,4.12,16.12a106.87,106.87,0,0,0,17.59,44.28,20.77,20.77,0,0,1,2.65,6.58c-13.53-11.49-17.6-26.93-21.8-42.31-2.17-7.94-3.95-16-6.73-23.77-1.29-3.6-4.55-6.6-6.68-9.54-1.57,2.37-3.43,5.21-6.21,9.43,1.58-6.1,2.7-10.39,4.1-15.77L158,125.7Z" transform="translate(342.94 39.3)"/><path class="bbf07b99-6c2c-489f-8142-7b559fcb56c2" d="M127.17,30.14c4.21.26,8.55,1.21,12.6.59s7.75-2.82,11.79-4.4c5.28,4.45,5.7,6,2.59,10.44L159,38.69c-3,.35-4.73,1.06-5.86.6-8-3.3-10.68-2.18-11.88,5.53-.41,2.67-.47,5.38-2.23,8-.81-4.63-1.9-9.24-2.36-13.89C136,32.49,134.09,30.76,127.17,30.14Z" transform="translate(342.94 39.3)"/><path class="bbf07b99-6c2c-489f-8142-7b559fcb56c2" d="M-206.32,493.84l-6.58,1.41c-1.61,3.14.41,9.59-7.73,8-.54-3.18-1.05-6.2-1.67-9.8l3.45-1.15c.18-2.53.4-5.61.61-8.59l-3.87,1.48c.48-2.84,1-5.69,1.52-9,8.77,6.19,8.77,6.19,4,13.31,5.56.63,5.95-9.41,13.95-4.53l-9.89,7.1,6,.48Z" transform="translate(342.94 39.3)"/><path class="bbf07b99-6c2c-489f-8142-7b559fcb56c2" d="M-305.82,287.18q-6-18.72-11.9-37.45l1.58-.46q4,10.54,8.12,21.08l.91-.27q2-20.5,4-41l1.6-.16c.31,2.6,1,5.22.86,7.8-.88,13.44-1.88,26.88-3.08,40.3-.3,3.37-1.5,6.67-2.28,10Z" transform="translate(342.94 39.3)"/><path class="bbf07b99-6c2c-489f-8142-7b559fcb56c2" d="M209.1,17.87,216,14.25l5.18,4.12,1.6-1.24c-.58,2.71-1.17,5.43-1.73,8l9.55,2.75c-4.64,3.35-9.29,6.78-9.87,13.16L220,32.45l-4.93.64c.24-4.13.5-8.43.8-13.54l-6.1,3.31c-.27-2-.47-3.48-.68-5Z" transform="translate(342.94 39.3)"/><path class="bbf07b99-6c2c-489f-8142-7b559fcb56c2" d="M218.45,700.35c-.23,2.51-.52,5.54-.88,9.37-3.47-1.5-5.67-2.41-7.84-3.39-1.94-.87-3.83-1.82-5-2.36V693.59Z" transform="translate(342.94 39.3)"/><path class="bbf07b99-6c2c-489f-8142-7b559fcb56c2" d="M-265.91,374.2c5.71,18.27,23.2,23.41,38.88,30.54,4.74,2.15,9.39,4.49,14.08,6.75l-.92,1.6c-13.67-6.56-27.68-12.61-40.89-19.86C-262.16,389.16-266.15,380.87-265.91,374.2Z" transform="translate(342.94 39.3)"/><path class="bbf07b99-6c2c-489f-8142-7b559fcb56c2" d="M-286,225.06c.74,7.55,1.41,14.39,2.22,22.57l-9.86-9c5.18-2.87,1.53-5-2.32-7.13Z" transform="translate(342.94 39.3)"/><path class="bbf07b99-6c2c-489f-8142-7b559fcb56c2" d="M-292.58,314.19l8.46,12.65v-17.5c5.69,9-2.11,20.42,8.64,27.09-10.56-4.24-14.5-12.83-19-21.06Z" transform="translate(342.94 39.3)"/><path class="bbf07b99-6c2c-489f-8142-7b559fcb56c2" d="M-267.43,541.27l29.83-29.4,2.13,1.82-30.28,29Z" transform="translate(342.94 39.3)"/><path class="bbf07b99-6c2c-489f-8142-7b559fcb56c2" d="M241.3,190.88c8.44,3,13.59,13.51,14.66,33C250.61,211.87,245.87,201.18,241.3,190.88Z" transform="translate(342.94 39.3)"/><path class="bbf07b99-6c2c-489f-8142-7b559fcb56c2" d="M104.13,78.25c-.19-1.27-.38-2.6-.59-4,13.65-.09,20.76-5.79,17.58-13.82h9.75c-3.11,3.77-7,6.84-8.42,10.67-1.59,4.35-3.36,5.37-7.74,3.85a5.58,5.58,0,0,0-3.14.41C109.17,76.22,106.84,77.2,104.13,78.25Z" transform="translate(342.94 39.3)"/><path class="bbf07b99-6c2c-489f-8142-7b559fcb56c2" d="M97.36,132.92l9.36-8.85,8.88,8.77-5.81-.88-1.54,3.33L99,134.62Z" transform="translate(342.94 39.3)"/><path class="bbf07b99-6c2c-489f-8142-7b559fcb56c2" d="M253.89,193.14a12.7,12.7,0,0,1,.81,2.31,10.66,10.66,0,0,1-.53,2.7l-11.72-12c4.56-1.49,1.31-11,11.64-11.42-2.16,2.66-3.4,4.19-4.84,5.95l4.36,4.21H245.3l8.75,8.39Z" transform="translate(342.94 39.3)"/><path class="bbf07b99-6c2c-489f-8142-7b559fcb56c2" d="M292.86,165.59l6.08-6.53c1.82,5.1,3.06,8.6,4.45,12.5-11.49.4-11.49.4-11.88-4.35Z" transform="translate(342.94 39.3)"/><path class="bbf07b99-6c2c-489f-8142-7b559fcb56c2" d="M-306,287c-1.7,5.84,1.19,16.16,4.79,19.78-3.28-1-7.31-1.21-9.6-3.15-2-1.69-2-5.31-2.9-8.08l2.05-.64,2.74,3.91,1.62-.4-3.17-13.53,4.61,2.27Z" transform="translate(342.94 39.3)"/><path class="bbf07b99-6c2c-489f-8142-7b559fcb56c2" d="M-147.22,144.33l4.95-1.9-.16-1.48-16,.65c6.13-8.1,13-.46,18-3.17l4.92,8.13Z" transform="translate(342.94 39.3)"/><path class="bbf07b99-6c2c-489f-8142-7b559fcb56c2" d="M93.62,332.6l4.63,5c1.06-2.48,1.92-4.51,2.81-6.61l8.53,5.24c-4.84-.66-3.09,8.63-9.1,5-3.22-1.94-6-4.49-9-6.76C92.2,333.84,92.91,333.22,93.62,332.6Z" transform="translate(342.94 39.3)"/><path class="bbf07b99-6c2c-489f-8142-7b559fcb56c2" d="M254.05,193.3c.19-1,.39-2,.62-3.11l4.94,2.16c-1.38-4.32-2.47-7.75-3.69-11.59l5.22-1.13c.79,5.61,1.52,10.87,2.35,16.83l-9.59-3.31Z" transform="translate(342.94 39.3)"/><path class="bbf07b99-6c2c-489f-8142-7b559fcb56c2" d="M124.5,109.92c.25,3.5.41,5.64.55,7.51l-9.68-.6v-7.64Z" transform="translate(342.94 39.3)"/><path class="bbf07b99-6c2c-489f-8142-7b559fcb56c2" d="M-283.9,537.78-312.13,563l-2.29-2,27.15-26.14Z" transform="translate(342.94 39.3)"/><path class="bbf07b99-6c2c-489f-8142-7b559fcb56c2" d="M188,699.81c-.77-5.43,2-8.18,6.75-8.8,2-.26,4.32,1.4,6.49,2.18l-1,2-8.82-1.44c-1.41,7.07,5.45,2.73,7.91,6.08Z" transform="translate(342.94 39.3)"/><path class="bbf07b99-6c2c-489f-8142-7b559fcb56c2" d="M-260,517.53l21.89-12c-.5,6.07-2.41,7.18-20.6,13.64Z" transform="translate(342.94 39.3)"/><path class="bbf07b99-6c2c-489f-8142-7b559fcb56c2" d="M197.26,49.84c4.45-2.47,8.71-5,13.16.35,1.1,1.32,3.9,1.46,5.92,2.14-.19.51-.42,1.17-.44,1.17-5.51-1.35-11-2.94-16.48,0l-2-3.88Z" transform="translate(342.94 39.3)"/><path class="bbf07b99-6c2c-489f-8142-7b559fcb56c2" d="M-323.2,274.11l8.1-3.6,5.88,9.12-1.87,1.75Z" transform="translate(342.94 39.3)"/><path class="bbf07b99-6c2c-489f-8142-7b559fcb56c2" d="M-275.12,526.14l10.82-5.45c-.43,6.31-6.25,6.41-9.76,7.09s-7.42-1.51-12.13-2.67C-280.92,520.39-277.9,523.32-275.12,526.14Z" transform="translate(342.94 39.3)"/><path class="bbf07b99-6c2c-489f-8142-7b559fcb56c2" d="M209.11,17.87c-5,2.23-7.38,5.31-4.25,10.56l-4.47-4.87-4.47,3.54c-2-4-2-4,5.6-11.18-.63,2.8-1,4.31-1.16,5.12l8.74-3.17Z" transform="translate(342.94 39.3)"/><path class="bbf07b99-6c2c-489f-8142-7b559fcb56c2" d="M105.53,396.76l-2.6-4.32,5.51-5.28,8.61,2.92-3.51,1.1,3,2.6-.5.73-7.5-3.79,1.71,4.29Z" transform="translate(342.94 39.3)"/><path class="bbf07b99-6c2c-489f-8142-7b559fcb56c2" d="M-190.11,163.37c4.25-5.68,10.33-6.53,17.43-4.8a29.4,29.4,0,0,1-3.74,1.27c-4.61,1-4.57.93-6.06,5.87a2.56,2.56,0,0,1-1.94,1.27,4.73,4.73,0,0,1-2.63-.9,32.29,32.29,0,0,1-3.17-2.82Z" transform="translate(342.94 39.3)"/><path class="bbf07b99-6c2c-489f-8142-7b559fcb56c2" d="M-14.37,708.33l-2.2-4c7.1-1.92,9.48-.25,10.09,9.22a36.88,36.88,0,0,0-3.82-3.36,28.81,28.81,0,0,0-4.26-2Z" transform="translate(342.94 39.3)"/><path class="bbf07b99-6c2c-489f-8142-7b559fcb56c2" d="M-225.21,371.17l-5.39,4.07c-.82-2.88-1.59-5.6-2.38-8.39l4.89-2.38,4.14,8.14Z" transform="translate(342.94 39.3)"/><path class="bbf07b99-6c2c-489f-8142-7b559fcb56c2" d="M19.41,422.37,47.54,412l.69,1.56-28,10.63C19.94,423.56,19.68,423,19.41,422.37Z" transform="translate(342.94 39.3)"/><path class="bbf07b99-6c2c-489f-8142-7b559fcb56c2" d="M169.43,679.78v3.58l-5.88,2.39c-1.07-2.75-2.32-5.93-4-10.19,2,.9,3.57,1.59,5.12,2.26S167.81,679.11,169.43,679.78Z" transform="translate(342.94 39.3)"/><path class="bbf07b99-6c2c-489f-8142-7b559fcb56c2" d="M183.2,119.18l14.34,9.4c-.32.56-.65,1.12-1,1.69l-9.25-2.46C186,125.05,185,122.94,183.2,119.18Z" transform="translate(342.94 39.3)"/><path class="bbf07b99-6c2c-489f-8142-7b559fcb56c2" d="M213.77,448.52c-3.54-7.1-7.08-14.21-10.55-21.15C209.71,431.64,212,435.94,213.77,448.52Z" transform="translate(342.94 39.3)"/><path class="bbf07b99-6c2c-489f-8142-7b559fcb56c2" d="M205.12,191.29l5.2-6.22c1.71,1.37,6.45,4.43,6.12,5C213.37,195.28,209.66,188.5,205.12,191.29Z" transform="translate(342.94 39.3)"/><path class="bbf07b99-6c2c-489f-8142-7b559fcb56c2" d="M173,89.77c-9.76,5.5-8.78-5.36-14.55-4.3.42-.71.83-1.43,1.24-2.15Z" transform="translate(342.94 39.3)"/><path class="bbf07b99-6c2c-489f-8142-7b559fcb56c2" d="M-78.26,140.43l5.84-1.94,2,2.54-7.55,6.59-2.31-1.34q1.1-3,2.21-6Z" transform="translate(342.94 39.3)"/><path class="bbf07b99-6c2c-489f-8142-7b559fcb56c2" d="M232.68,190.76l2.81,7.91c-1.89,0-3.34,0-4.78,0s-2.87-.17-4.31-.26c.95-.64,2.3-1.09,2.75-1.94a27.81,27.81,0,0,0,1.62-5.05Z" transform="translate(342.94 39.3)"/><path class="bbf07b99-6c2c-489f-8142-7b559fcb56c2" d="M-275.91,338.65l6.31,4.63-1.35-5.26h5.51c-.61,2-1.44,4.69-2.27,7.37l-9.39-5.1Z" transform="translate(342.94 39.3)"/><path class="bbf07b99-6c2c-489f-8142-7b559fcb56c2" d="M-58.32,713.66c1.93-1.21,3.37-2.85,4.53-2.7a24.36,24.36,0,0,1,10.64,3.8Z" transform="translate(342.94 39.3)"/><path class="bbf07b99-6c2c-489f-8142-7b559fcb56c2" d="M-205.95,388.12c-2.87-.75-7-.72-8.3-2.45-1.76-2.34-1.35-6-1.87-9.15l1.94-.22.35,3.47,4.14-2.65.6.58c-1.64,1.28-3.27,2.57-5.88,4.63L-206,387Z" transform="translate(342.94 39.3)"/><path class="bbf07b99-6c2c-489f-8142-7b559fcb56c2" d="M-304.95,343.4l9.31,1-1.47,7.91c-3.8-1.55-.31-10-9.25-6Z" transform="translate(342.94 39.3)"/><path class="bbf07b99-6c2c-489f-8142-7b559fcb56c2" d="M25.07,132.37l10.09,3.16-6.66,5.92Z" transform="translate(342.94 39.3)"/><path class="bbf07b99-6c2c-489f-8142-7b559fcb56c2" d="M139.37,57.1,155.28,66C150.2,68.17,144,65.3,139.37,57.1Z" transform="translate(342.94 39.3)"/><path class="bbf07b99-6c2c-489f-8142-7b559fcb56c2" d="M42.58,131.59c6.86,3.06,0,6.25.78,9.28C37.49,138.25,37.47,138,42.58,131.59Z" transform="translate(342.94 39.3)"/><path class="bbf07b99-6c2c-489f-8142-7b559fcb56c2" d="M-179.78,401.7l-1.39-3.92-4.82,5.37c0-3.84-.14-5.91.19-7.91,0-.23,3.35-.67,4,0,1.6,1.62,2.56,3.78,3.77,5.72Z" transform="translate(342.94 39.3)"/><path class="bbf07b99-6c2c-489f-8142-7b559fcb56c2" d="M-197.6,714.58l23.22-1.08,0,1.48h-23Z" transform="translate(342.94 39.3)"/><path class="bbf07b99-6c2c-489f-8142-7b559fcb56c2" d="M103.12,374.33l6.07,7-8.84-.88,3-6Z" transform="translate(342.94 39.3)"/><path class="bbf07b99-6c2c-489f-8142-7b559fcb56c2" d="M49.29,706.31c-.23,1.36-.47,2.74-.83,4.81L37.78,706c.19-.32.37-.64.55-1Z" transform="translate(342.94 39.3)"/><path class="bbf07b99-6c2c-489f-8142-7b559fcb56c2" d="M-292.9,342.71c-.26-3.49-.45-5.9-.69-9.06l7.9,4.07Z" transform="translate(342.94 39.3)"/><path class="bbf07b99-6c2c-489f-8142-7b559fcb56c2" d="M-169.12,400.6c-.8.68-1.19,1.28-1.69,1.36s-1-.43-1.5-.67c.43-.41.79-1,1.31-1.16C-170.63,400-170,400.35-169.12,400.6Z" transform="translate(342.94 39.3)"/><path class="bbf07b99-6c2c-489f-8142-7b559fcb56c2" d="M-61.13,221.07c-17.47,26.11-40,45.6-74.69,51.25.64-5.1,1.75-10.49,1.9-15.9.27-9.6.81-19.32-.45-28.8-.76-5.74,1-7.71,6.36-9.17C-110.33,213.66-79.19,214.74-61.13,221.07Z" transform="translate(342.94 39.3)"/><path class="bbf07b99-6c2c-489f-8142-7b559fcb56c2" d="M-117.28,517.47c-3.9,12.79.85,23.76,6.13,35.17,2.22,4.81-.18,11.83-1.89,17.49-.51,1.67-5.84,2.12-7.7,2.72-3.77-4.13-8-7.32-10-11.42a30,30,0,0,1-3.35-14.77C-133.35,535.23-132.07,523.54-117.28,517.47Z" transform="translate(342.94 39.3)"/><path class="bbf07b99-6c2c-489f-8142-7b559fcb56c2" d="M-59.37,702c-6.72,6-10-3.66-15.69-1.79l-.48-1.69,5.94-5.86-9.11,2.44c1.28-7.86,1.29-7.84,9.17-9.9,2.81-.73,5.91-1.14,8.31-2.52,4.35-2.5,7.58.46,11,1.48,2.12.63,3.4,3.38,5.51,4.35s4.65.81,7.48,1.22c-.78,2.5-1.36,4.39-1.86,6l-6.47-1.21c-.18.55-.36,1.1-.55,1.65l10.89,4.3-12.53,4.87,0,1.85Z" transform="translate(342.94 39.3)"/><path class="bbf07b99-6c2c-489f-8142-7b559fcb56c2" d="M61,681.58c-1.54,1.1-2.94,2.5-4.68,3.21s-3.9.17-5.42,1c-8.23,4.2-14-1.84-20.81-3.61-1.94-.5-4.86,2.13-6.91,3.13l-15.1-4.6c6.47-2.76,7.3-6.68,3.34-12.23l8.8,6.93,2.16-2.18-6.08-2.44,1.35-2.15,6.46.55c2,8.87,4.17,11,11.13,10.7,1.19-.06,2.3-1.45,3.83-2.48l-8.31-2.15.1-2a60.84,60.84,0,0,1,7.35-1.46,50.86,50.86,0,0,1,7.1.32c.47,1.27,1.16,4.53,1.76,4.52a103.07,103.07,0,0,0,12.1-1.52c.38,1.42,1.07,4.05,1.77,6.67Z" transform="translate(342.94 39.3)"/><path class="bbf07b99-6c2c-489f-8142-7b559fcb56c2" d="M73.87,681.8c3.54,0,7.18-.47,10.61.13,2.7.46,5.13,2.22,7.84,3.48l3-1.61a13.47,13.47,0,0,0,.65,3.14c.65,1.46,1.6,2.81,3.13,5.39,1.18-2.83,1.89-4.54,2.61-6.25,4.82,6.89,4.82,6.89-.87,10.54l3,3.45c-2.31,0-5.15.41-5.33-.06-3.4-8.56-11.73-4.23-17.71-5.84-.42-.11-.82-.27-1.62-.54l1.92-4.5C72.6,691,73.68,686,74,681.59Z" transform="translate(342.94 39.3)"/><path class="bbf07b99-6c2c-489f-8142-7b559fcb56c2" d="M-142,508.25-129.29,486l1.83.44q1.86,5.38,3.7,10.77l-16.85,11.59Z" transform="translate(342.94 39.3)"/><path class="bbf07b99-6c2c-489f-8142-7b559fcb56c2" d="M2.18,677.17c-8.25,2.38-9.81-5.63-16.06-7.39,1.41-3.35,2.61-6.18,3.81-9l1.5.32L-7.42,667l12.24,1.84-6.28,6.74Z" transform="translate(342.94 39.3)"/><path class="bbf07b99-6c2c-489f-8142-7b559fcb56c2" d="M38,119.52l-1.26-2.93c3.82-1.11,7.59-2.41,11.47-3.27s7.62-1.23,12.73-2C56.66,114.79,53.6,118,49.81,120c-1.52.81-4.63-1.2-7.07-1.41-1.57-.13-3.23.67-4.87,1.07Z" transform="translate(342.94 39.3)"/><path class="bbf07b99-6c2c-489f-8142-7b559fcb56c2" d="M61,681.72c2.3-1.32,4-5.86,7.47-.85.68,1,3.56.67,5.43.94l.14-.22-3.7,7.62-6.09-.64c-1.15-2.58-2.15-4.81-3.17-7C61,681.58,61,681.72,61,681.72Z" transform="translate(342.94 39.3)"/><path class="bbf07b99-6c2c-489f-8142-7b559fcb56c2" d="M-4.41,647.46l.75,5.75-1,.43-2.63-3.94-6.52,9.57-4.65-8.09Z" transform="translate(342.94 39.3)"/><path class="bbf07b99-6c2c-489f-8142-7b559fcb56c2" d="M-51.46,646.27c1.06,2.37,2.06,4.62,2.83,6.32a78.53,78.53,0,0,1-8.89.66c-1.73,0-3.43-1.1-5.14-1.7,1.44-.78,2.84-1.62,4.33-2.31C-56.08,648.19-53.76,647.26-51.46,646.27Z" transform="translate(342.94 39.3)"/><path class="bbf07b99-6c2c-489f-8142-7b559fcb56c2" d="M-139.82,683.2l-14.46,2-.3-2.07C-150.22,681.84-146.52,676.33-139.82,683.2Z" transform="translate(342.94 39.3)"/><path class="bbf07b99-6c2c-489f-8142-7b559fcb56c2" d="M-98.17,629.2V618.52l10.83,9.74C-92.06,629.91-94,621.8-98.17,629.2Z" transform="translate(342.94 39.3)"/><path class="bbf07b99-6c2c-489f-8142-7b559fcb56c2" d="M-24.79,661l5.85-.92,3.81,5.34c-.35.53-.69,1.07-1,1.61l-9.69-4.51Z" transform="translate(342.94 39.3)"/><path class="bbf07b99-6c2c-489f-8142-7b559fcb56c2" d="M-57.29,662.84l4.89-1.25c-.28-2.14-.55-4.11-.82-6.08l1.71-.58q1,4.29,2,8.57l-7.46,1.24Z" transform="translate(342.94 39.3)"/><path class="bbf07b99-6c2c-489f-8142-7b559fcb56c2" d="M261.42-3l9-1.5L270.16-6l-8.6,1.08,2.8-3.95a20.55,20.55,0,0,0-4.48-1.56c-.69-.09-1.57,1.1-3.54,2.63.07.15.75,1.78,2,4.86-6,2-11.84,5-18.05,5.82-3.78.51-4.42-7-.76-10.39,1-.92,2.22-2.06,2.38-3.21.76-5.36,3.56-7.66,9.78-7.85,6.6-.21,13.15-1.78,20.64-2.9,4.89,4.46,5.08,6.83.88,10.49,2.59,3.22,5.91,6,7.22,9.35,1.53,4-1.83,6.32-6.1,4.67S266.19-.75,261.42-3Z" transform="translate(342.94 39.3)"/><path class="bbf07b99-6c2c-489f-8142-7b559fcb56c2" d="M305.39-23.66c-3.22,1.32-6.65,2.34-9.62,4-4,2.32-8,2.14-9.59-1.67s-2.59-8.85-1-12.2c1.13-2.34,6.67-6.29,11.21-1.92,2.83,2.74,4.59,2.6,7.64.08C309.42-39.76,318.4-38,320.15-32c.62,2.14-1.6,6-3.81,7.52-2.63,1.8-6.64,1.91-10,2.75Z" transform="translate(342.94 39.3)"/><path class="bbf07b99-6c2c-489f-8142-7b559fcb56c2" d="M341.33-35.69c-.76,1.58-1.52,3.16-2.67,5.52l6.94-3.46,5.59,12.82c-6.88,3.24-15.88,3.27-16.58.13s-.16-6.9.63-10.22c.51-2.14,2.46-4,3.76-6Z" transform="translate(342.94 39.3)"/></svg>
