<svg id="f213dcf8-ced5-4848-a594-d872e8676f2f" data-name="Layer 1" xmlns="http://www.w3.org/2000/svg" viewBox="0 0 248.31 500.07"><title>jap</title><path d="M825.81,169.64c-13.9,12.78-29.12,22-47.78,24l-1.24-1.9c2.3-2.24,4.79-4.31,6.86-6.75,8.87-10.42,17.63-20.94,26.4-31.45,1.81-2.16,1.56-4.17.12-6.69-11.57-20.21-19-42-24.22-64.6-.47-2-.77-4.13-1.19-6.19s-.86-4-1.32-6.17c-14.42,1.73-28.4,7.2-43.46,2-.43,2.41-.9,5-1.38,7.75l-7.26,1.07.06.81a14,14,0,0,1,2.14-.09c3.65.43,6,1.57,5,6.19-.82,3.82-.63,7.86-.95,12.78,4-1.24,7.44-2.21,10.81-3.32,5-1.64,9.89-3.53,14.94-5,1.17-.33,2.94.44,4.1,1.21,6.61,4.36,13.11,8.89,19.64,13.35,5.32,3.64,6.14,10.52,2.14,15.69-4.82,6.22-3.84,13.81-5.31,20.82-2.57,12.35-4.33,25-12.95,35.12-5.33,6.23-12.13,9.77-20.47,9.46a6.07,6.07,0,0,1-4.3-2.5c-5.83-9.84-11.41-19.82-17-29.77a12.92,12.92,0,0,1-.41-2.7c3,.41,5.63.63,8.19,1.16,10.6,2.16,15.39-.35,18.26-10.57a71.89,71.89,0,0,0,2.5-15.7c.33-6.36-2.91-9.33-9.17-8.88-4.62.33-9.2,1.32-13,1.9-4,12.14-7.4,23.93-11.77,35.35-8.73,22.85-26.58,35.84-48.94,43.54-1.1.37-2.43,0-5.42,0,3-4,5.12-6.84,7.19-9.66,12.5-17,18.91-36.45,23-56.81,4.38-21.74,5.76-43.76,5.51-65.9a38.82,38.82,0,0,0-.46-6.47c-.72-3.93-2.92-6.74-8.74-8.32,3.89-2.23,6.53-4.25,9.51-5.36,8.1-3,16-.55,23.81,1.58,2.35.65,4.94,1.45,7.25,1.08,13-2,25.88-4.46,38.82-6.66,2.53-.43,4-1.28,3.53-4.17-1.4-9.86-2.56-19.77-4.09-29.61-.73-4.73-1.51-9.62-3.37-14-1.27-3-4.45-5.11-6.85-7.7,4.92-8.13,8.44-9.61,17.69-7.09,5.56,1.51,11.18,2.82,16.62,4.69,8,2.76,10.37,7,8.35,15.26-2.55,10.44-.36,20.69.08,31.24,14.23-5.88,30.76-2,38.76,8.81,3.21,4.32,2.6,10.61-2.25,12.76-7.22,3.2-14.93,5.29-22.46,7.73-3,1-6,1.59-9.41,2.47,4.54,18.13,8.18,36.13,16.52,53.81,3.42-8.82,6.51-16.7,5.61-25.34-.66-6.36-1.38-6.86-7.7-10.07,8.05-2.64,14.79-8.91,23.51-2.38,5.38,4,12.09,6.45,16.93,11,6.75,6.29,7.69,12.85,1.87,20.56-6.46,8.58-11.25,18.42-16.83,27.67-1.45,2.41-3.12,4.68-4.88,7.29,7.79,9.8,16.42,18.52,28.61,23,4.17,1.53,7.29.84,9.16-3.16,3-6.46,5.76-13.05,8.61-19.58.76-1.73,1.51-3.47,2.26-5.2l1.66.06c.44,2.6,1.07,5.19,1.29,7.81.79,9.44,1.08,18.94,2.3,28.33.66,5.14,3,10,4.19,15.15.86,3.64,1.78,7.52,1.4,11.15-.74,7.1-3.72,9.22-10.83,8.22-23.07-3.26-42.38-13.9-58.62-30.39C833.21,177.62,829.64,173.7,825.81,169.64Z" transform="translate(-669.36 20.57)"/><path d="M809.69,334.11c-13-3.5-21.68-12.28-30.75-22.68l37.94-3a292.85,292.85,0,0,0,5.35-61.7c-.15-5.68-2.65-10.3-8.62-12.21,6.89-7.7,17.57-13.25,27.23-8.17,7.93,4.17,15.95,8.18,23.69,12.67,5.1,3,6.89,7.86,5.55,13.68q-4.32,18.68-8.73,37.34c-.75,3.15-1.54,6.29-2.52,10.33,6.19-1.47,11.36-3.09,16.65-3.79,3.07-.41,6.85-.26,9.42,1.21a278.22,278.22,0,0,1,24.3,15.57c9.54,6.88,11.25,13.21,4,22.32-6.26,7.83-6.12,16.48-7.45,25.18-1.67,11-2.75,22.12-5.05,33a238.53,238.53,0,0,1-8.57,30.14c-3.7,10.47-9.89,19.55-19.22,26-5.94,4.1-12.62,6.79-19.89,6.59-2.54-.07-6-1.59-7.36-3.6-7.38-11.21-14.24-22.78-21.26-34.23a24.33,24.33,0,0,1-1-2.33,13.81,13.81,0,0,1,3.5-.17c3.88.95,7.69,2.16,11.57,3.1,11.24,2.72,16.48.14,21.73-10.19,7-13.77,9.66-28.61,11.09-43.75.92-9.61,1.74-19.25,2.09-28.89.3-8.28-2.52-10.79-10.67-10.8-10.18,0-10.18,0-13.45,9.68-7.89,23.35-16.89,46.18-31.63,66.25-12.11,16.49-26.12,31.26-44.18,41.07-11,6-23.15,9.7-34.81,14.41a4.18,4.18,0,0,1-2.43.36c-1.21-.32-2.75-.77-3.3-1.69-.36-.6.52-2.35,1.29-3.16,6.88-7.15,14-14.13,20.8-21.32a235.45,235.45,0,0,0,30.7-40.87c10-16.59,16.55-34.71,23.36-52.71A23,23,0,0,0,809.69,334.11Z" transform="translate(-669.36 20.57)"/><path d="M680.66,370.14c7,5.85,14.47,2,21.64,1.38A119.65,119.65,0,0,0,717,368.8c1-.23,2.67-1.24,2.75-2,1.67-15.83,3.15-31.68,4.69-47.77-17.13-1.64-26.86-12.7-36.84-23.32-.89-.95-1.71-2.91-1.3-3.85s2.41-1.4,3.75-1.47a159.47,159.47,0,0,0,47.12-9.51,31.36,31.36,0,0,0,4.17-1.63c14.64-8,27.6-3.21,39.67,5.67,8.15,6,7.23,15.61-2,19.92-5.94,2.77-12.61,4-19,5.85-1.08.32-2.19.55-3.92,1,4.62,3.64,3.86,7.3,2.64,12.14-2.32,9.12-3,18.65-4.38,28-.44,3.07-.71,6.17-1.09,9.55l37.94-7.44.94,1.73c-2.2,2-4.18,4.29-6.62,5.9-12,7.84-24,15.6-36.09,23.18-13.07,8.17-26.31,16.07-39.44,24.15-4.25,2.61-8.3,1.85-12.2-.59-7.6-4.75-11.62-12.47-16-19.82-.94-1.57-1.61-3.29-2.53-4.86C676.23,378.49,676.45,375.58,680.66,370.14Z" transform="translate(-669.36 20.57)"/><path d="M838.53,16l5.26.58.55-.88c-.66-.58-1.31-1.64-2-1.64-4.38,0-6.64-2.68-9-5.94C830.51,4,827,.34,822.61-4.87c5,0,9-.6,12.8.12,8.05,1.54,16.06,3.48,23.93,5.8,4.45,1.31,7,4.92,7.39,9.7.56,6.5-.14,12.69-5.68,17.07-4.34,3.44-10.88,4.08-14.27.64C843.64,25.27,841.68,20.91,838.53,16Z" transform="translate(-669.36 20.57)"/></svg>
